HIERARCHY
ROOT Hips
{
  OFFSET 51.6058 56.1214 -15.1003
  CHANNELS 6 Xposition Yposition Zposition Zrotation Xrotation Yrotation
  JOINT spine
  {
    OFFSET 0 7.96568 0.458067
    CHANNELS 3 Zrotation Xrotation Yrotation
    JOINT spine1
    {
      OFFSET 0 10.2431 0
      CHANNELS 3 Zrotation Xrotation Yrotation
      JOINT spine2
      {
        OFFSET 0 9.81475 0
        CHANNELS 3 Zrotation Xrotation Yrotation
        JOINT Neck
        {
          OFFSET 0 25.1986 1.20138
          CHANNELS 3 Zrotation Xrotation Yrotation
          JOINT Head
          {
            OFFSET 0 7.61315 0
            CHANNELS 3 Zrotation Xrotation Yrotation
            End Site
            {
              OFFSET 0 18.4281 -6.07733
            }
          }
        }
        JOINT RightShoulder
        {
          OFFSET -4.1327 10.5992 -0.575451
          CHANNELS 3 Zrotation Xrotation Yrotation
          JOINT RightArm
          {
            OFFSET 0 13.9018 0
            CHANNELS 3 Zrotation Xrotation Yrotation
            JOINT RightArmRoll
            {
              OFFSET 0 7.01789 0
              CHANNELS 3 Zrotation Xrotation Yrotation
              JOINT RightForeArm
              {
                OFFSET 0 20.4406 0
                CHANNELS 3 Zrotation Xrotation Yrotation
                JOINT RightForeArmRoll
                {
                  OFFSET 0 7.87515 0
                  CHANNELS 3 Zrotation Xrotation Yrotation
                  JOINT RightHand
                  {
                    OFFSET 0 15.8037 0
                    CHANNELS 3 Zrotation Xrotation Yrotation
                    End Site
                    {
                      OFFSET 0 0 0
                    }
                  }
                }
              }
            }
          }
        }
        JOINT LeftShoulder
        {
          OFFSET 4.1327 10.5992 -0.575451
          CHANNELS 3 Zrotation Xrotation Yrotation
          JOINT LeftArm
          {
            OFFSET 0 13.9018 0
            CHANNELS 3 Zrotation Xrotation Yrotation
            JOINT LeftArmRoll
            {
              OFFSET 0 7.01789 0
              CHANNELS 3 Zrotation Xrotation Yrotation
              JOINT LeftForeArm
              {
                OFFSET 0 20.4406 0
                CHANNELS 3 Zrotation Xrotation Yrotation
                JOINT LeftForeArmRoll
                {
                  OFFSET 0 7.87515 0
                  CHANNELS 3 Zrotation Xrotation Yrotation
                  JOINT LeftHand
                  {
                    OFFSET 0 15.8037 0
                    CHANNELS 3 Zrotation Xrotation Yrotation
                    End Site
                    {
                      OFFSET 0 0 0
                    }
                  }
                }
              }
            }
          }
        }
      }
    }
  }
  JOINT RightUpLeg
  {
    OFFSET -7.06048 -1.2947 -1.0861
    CHANNELS 3 Zrotation Xrotation Yrotation
    JOINT RightUpLegRoll
    {
      OFFSET 0 18.5308 0
      CHANNELS 3 Zrotation Xrotation Yrotation
      JOINT RightLeg
      {
        OFFSET 0 -22.9476 0
        CHANNELS 3 Zrotation Xrotation Yrotation
        JOINT RightLegRoll
        {
          OFFSET 0 23.0226 0
          CHANNELS 3 Zrotation Xrotation Yrotation
          JOINT RightFoot
          {
            OFFSET 0 19.1625 0
            CHANNELS 3 Zrotation Xrotation Yrotation
            JOINT RightToeBase
            {
              OFFSET 0 16.0188 0
              CHANNELS 3 Zrotation Xrotation Yrotation
              End Site
              {
                OFFSET 0.00678979 7.75782 -0.894206
              }
            }
          }
        }
      }
    }
  }
  JOINT LeftUpLeg
  {
    OFFSET 7.06048 -1.2947 -1.0861
    CHANNELS 3 Zrotation Xrotation Yrotation
    JOINT LeftUpLegRoll
    {
      OFFSET 0 18.5309 0
      CHANNELS 3 Zrotation Xrotation Yrotation
      JOINT LeftLeg
      {
        OFFSET 0 22.9475 0
        CHANNELS 3 Zrotation Xrotation Yrotation
        JOINT LeftLegRoll
        {
          OFFSET 0 23.2355 0
          CHANNELS 3 Zrotation Xrotation Yrotation
          JOINT LeftFoot
          {
            OFFSET 0 18.9496 0
            CHANNELS 3 Zrotation Xrotation Yrotation
            JOINT LeftToeBase
            {
              OFFSET 0 16.0188 0
              CHANNELS 3 Zrotation Xrotation Yrotation
              End Site
              {
                OFFSET -0.0304289 7.75783 -0.894206
              }
            }
          }
        }
      }
    }
  }
}
MOTION
Frames: 6
Frame Time: 0.00208333
53.1351 95.7106 28.913 -0.627679 0.33646 2.84665 0.105581 -2.09688 -0.0985547 0.207911 -0.191142 -0.206843 0.210756 1.45392 -0.21047 2.12489 18.0461 -1.91166 0.455303 -1.15774 -1.2115 71.1147 0.943343 -1.00722 106.324 20.9468 15.0164 -4.77083e-015 3.18055e-015 -3.18055e-015 6.78069 0.392668 -0.23622 -7.91306e-006 -1.83335e-006 -2.99999 8.02925 -4.95142 0.697639 -69.5788 0.401778 1.08577 -110.85 21.3263 -15.3514 3.33484e-006 1.61408e-006 -2.41779e-006 -1.75242 0.0154686 -0.0373108 4.20504e-006 1.80556e-006 3.04223 -8.03009 -4.95139 -0.697645 177.511 2.77499 -3.41775 180 7.01545e-015 178.916 178.045 7.47898 179.502 -1.50596e-006 2.18708e-006 0.107569 -19.2166 68.4828 19.9299 8.13649 25.2327 -3.48774 -175.406 2.39277 1.25112 4.5067e-006 -1.99009e-005 -1.08411 -2.10243 -6.80636 0.0951998 -2.5684e-006 -5.42585e-006 -0.0931919 19.0361 68.2873 -19.7687 -8.13649 25.2327 3.48774 
53.123 95.711 28.892 -0.623068 0.363348 2.8418 0.103748 -2.09731 -0.103412 0.204144 -0.191992 -0.216395 0.20708 1.45307 -0.219953 2.12212 18.0392 -1.91328 0.438465 -1.14035 -1.21608 71.1259 0.978136 -0.992114 106.321 20.9756 15.0143 -2.38542e-015 3.18055e-015 -1.59028e-015 6.77076 0.369416 -0.234578 -7.91306e-006 -1.83335e-006 -2.99999 8.02925 -4.95142 0.697639 -69.6049 0.398248 1.09053 -110.804 21.3506 -15.3602 3.33484e-006 1.61408e-006 -2.41779e-006 -1.75507 0.0154648 -0.0362656 4.20504e-006 1.80556e-006 3.04223 -8.03009 -4.95139 -0.697645 177.514 2.83674 -3.43154 180 7.01546e-015 178.917 178.062 7.51087 179.5 -1.50596e-006 2.18708e-006 0.108414 -19.2162 68.4823 19.93 8.13649 25.2327 -3.48774 -175.412 2.47527 1.25349 4.5067e-006 -1.99009e-005 -1.0836 -2.10545 -6.87536 0.0957518 -2.5684e-006 -5.42585e-006 -0.0947665 19.0516 68.3057 -19.7852 -8.13649 25.2327 3.48774 
53.1214 95.712 28.8654 -0.618717 0.390361 2.83661 0.10198 -2.09805 -0.108502 0.200502 -0.193474 -0.226418 0.203534 1.45159 -0.22991 2.11836 18.0347 -1.91412 0.421562 -1.12329 -1.22014 71.1379 1.01567 -0.975804 106.317 21.0033 15.014 3.18055e-015 3.18055e-015 4.77083e-015 6.7605 0.345351 -0.232877 -7.91306e-006 -1.83335e-006 -2.99999 8.02925 -4.95142 0.697639 -69.6333 0.39449 1.09566 -110.754 21.3745 -15.3705 3.33484e-006 1.61408e-006 -2.41779e-006 -1.75846 0.0154661 -0.0350008 4.20504e-006 1.80556e-006 3.04224 -8.03009 -4.95139 -0.697645 177.517 2.89819 -3.44754 180 7.01546e-015 178.918 178.08 7.54244 179.498 -1.50596e-006 2.18708e-006 0.10929 -19.2161 68.4822 19.9304 8.13649 25.2327 -3.48774 -175.417 2.55976 1.25518 4.5067e-006 -1.99009e-005 -1.08309 -2.10897 -6.94805 0.0963061 -2.5684e-006 -5.42585e-006 -0.0964623 19.0688 68.3262 -19.8035 -8.13649 25.2327 3.48774 
53.1191 95.6828 28.8426 -0.614545 0.417463 2.8312 0.100258 -2.09901 -0.113755 0.196946 -0.195399 -0.23677 0.200077 1.44966 -0.240198 2.11391 18.0319 -1.91442 0.404614 -1.10645 -1.22385 71.1503 1.05512 -0.958648 106.311 21.0304 15.0148 4.77083e-015 6.36111e-015 4.77083e-015 6.75001 0.320715 -0.231132 -7.91306e-006 -1.83335e-006 -2.99999 8.02925 -4.95142 0.697639 -69.6632 0.390573 1.10105 -110.702 21.3982 -15.3818 3.33484e-006 1.61408e-006 -2.41779e-006 -1.76238 0.0154709 -0.0335823 4.20504e-006 1.80556e-006 3.04224 -8.03009 -4.95139 -0.697645 177.522 2.95944 -3.46509 180 7.01546e-015 178.918 178.1 7.57376 179.496 -1.50596e-006 2.18708e-006 0.110187 -19.2163 68.4824 19.9311 8.13649 25.2327 -3.48774 -175.422 2.64565 1.2564 4.5067e-006 -1.99009e-005 -1.0826 -2.11284 -7.02333 0.0968624 -2.5684e-006 -5.42585e-006 -0.0982428 19.0872 68.348 -19.823 -8.13649 25.2327 3.48774 
53.1169 95.6883 28.8201 -0.610474 0.444616 2.82566 0.0985618 -2.10009 -0.119101 0.193439 -0.197576 -0.247311 0.196672 1.44749 -0.250675 2.10905 18.0301 -1.91441 0.387642 -1.08975 -1.22736 71.163 1.09566 -0.941009 106.305 21.057 15.0163 -0 0 1.59028e-015 6.7394 0.295754 -0.229364 -7.91306e-006 -1.83335e-006 -2.99999 8.02925 -4.95142 0.697639 -69.6941 0.386564 1.10659 -110.648 21.4217 -15.3937 3.33484e-006 1.61408e-006 -2.41779e-006 -1.76659 0.0154776 -0.032076 4.20504e-006 1.80556e-006 3.04225 -8.03009 -4.95139 -0.697645 177.528 3.02057 -3.48353 180 7.01546e-015 178.919 178.121 7.60495 179.494 -1.50596e-006 2.18708e-006 0.111097 -19.2166 68.4828 19.9319 8.13649 25.2327 -3.48774 -175.426 2.73235 1.25736 4.5067e-006 -1.99009e-005 -1.08211 -2.11691 -7.10008 0.0974198 -2.5684e-006 -5.42585e-006 -0.100072 19.1063 68.3707 -19.8434 -8.13649 25.2327 3.48774 
53.1022 95.6719 28.7982 -0.606423 0.471781 2.82008 0.096872 -2.10121 -0.12447 0.189944 -0.199817 -0.2579 0.193278 1.44525 -0.261199 2.1041 18.0285 -1.91432 0.370665 -1.07308 -1.23081 71.1758 1.13648 -0.92325 106.299 21.0835 15.018 1.03368e-014 0 6.36111e-015 6.72875 0.270712 -0.22759 -7.91306e-006 -1.83335e-006 -2.99999 8.02925 -4.95142 0.697639 -69.7252 0.382533 1.11217 -110.594 21.4452 -15.4058 3.33484e-006 1.61408e-006 -2.41779e-006 -1.77088 0.0154849 -0.0305477 4.20504e-006 1.80556e-006 3.04225 -8.03009 -4.95139 -0.697645 177.534 3.08167 -3.50219 180 7.01546e-015 178.92 178.142 7.63609 179.492 -1.50596e-006 2.18708e-006 0.112009 -19.217 68.4832 19.9328 8.13649 25.2327 -3.48774 -175.431 2.81924 1.25825 4.5067e-006 -1.99009e-005 -1.08162 -2.12102 -7.17721 0.0979778 -2.5684e-006 -5.42585e-006 -0.101913 19.1256 68.3935 -19.8639 -8.13649 25.2327 3.48774 
